<svg width="40" height="34" viewBox="0 0 40 34" fill="none" xmlns="http://www.w3.org/2000/svg">
<path d="M8.22021 16.9355H11.9702V20.7605H8.22021V16.9355Z" fill="#703D92"/>
<path d="M37.5171 24.7525L26.6383 20.2071C25.4296 19.7022 24.8458 20.2977 25.3408 21.5306L29.7983 32.6269C30.2933 33.8598 31.0346 33.8331 31.4446 32.5695L32.1958 30.2605C32.6058 28.9957 33.9571 27.6174 35.1971 27.1992L37.4608 26.4342C38.7008 26.0148 38.7246 25.2587 37.5171 24.7525Z" fill="#703D92"/>
<path d="M6.75125 28.977C5.44 28.977 4.37625 27.8907 4.37625 26.5545V6.845C4.37625 5.5088 5.44125 4.4225 6.75125 4.4225H32.2813C33.5925 4.4225 34.6563 5.5088 34.6563 6.845V20.3625L36.9425 21.3175C36.9963 21.0255 37.0313 20.7284 37.0313 20.4211V6.845C37.0313 4.17387 34.9 2 32.28 2H6.75125C4.13125 2 2 4.17387 2 6.845V26.5545C2 29.2256 4.13125 31.3995 6.75125 31.3995H25.365L24.3925 28.977H6.75125Z" fill="#703D92"/>
<path d="M14.2402 23.4255V14.5005C14.2402 14.1905 14.2302 13.8755 14.2102 13.5555C14.1902 13.2355 14.1602 12.9205 14.1202 12.6105H15.9352L16.1002 14.2005H15.9352C16.0852 13.6705 16.4002 13.2505 16.8802 12.9405C17.3702 12.6205 17.9352 12.4605 18.5752 12.4605C19.2452 12.4605 19.8302 12.6205 20.3302 12.9405C20.8302 13.2505 21.2202 13.7005 21.5002 14.2905C21.7802 14.8705 21.9202 15.5705 21.9202 16.3905C21.9202 17.2105 21.7802 17.9155 21.5002 18.5055C21.2202 19.0955 20.8302 19.5505 20.3302 19.8705C19.8302 20.1805 19.2452 20.3355 18.5752 20.3355C17.9452 20.3355 17.3902 20.1805 16.9102 19.8705C16.4302 19.5605 16.1102 19.1455 15.9502 18.6255H16.1152V23.4255H14.2402ZM18.0502 18.8955C18.6502 18.8955 19.1302 18.6905 19.4902 18.2805C19.8502 17.8605 20.0302 17.2305 20.0302 16.3905C20.0302 15.5505 19.8502 14.9255 19.4902 14.5155C19.1302 14.1055 18.6502 13.9005 18.0502 13.9005C17.4602 13.9005 16.9852 14.1055 16.6252 14.5155C16.2652 14.9255 16.0852 15.5505 16.0852 16.3905C16.0852 17.2305 16.2652 17.8605 16.6252 18.2805C16.9852 18.6905 17.4602 18.8955 18.0502 18.8955ZM23.542 20.1855V12.6105H25.417V20.1855H23.542ZM23.437 11.1855V9.35555H25.522V11.1855H23.437Z" fill="#703D92"/>
</svg>
